:SAMPLES-PER-SECOND 30
:FULLY-SPECIFIED
:DEGREES
1152
root  67.208 39.5301 30.3432 -179.046 -3.76228 177.188
RightUpLeg  -14.9306 -10.4743 -4.19967
RightLeg  5.57568 -22.1575 5.8385
RightFoot  6.46059 0.758982 -4.55841
RightToes  0.000482159 0.542163 -0.142577
Spine  39.786 -3.91782 9.91223
Spine1  7.18612 0.356774 -3.99706
HEad  -24.5353 3.94846 -10.0466
LeftShoulder1  12.7163 -19.1169 -49.0641
LeftArm  -7.82859 1.88177 -24.0518
LeftForeArm  28.7811 -12.756 -5.70043
LeftHand  -0.25398 0.0180481 5.50724
RightShoulder  7.65085 13.8375 38.0562
RightArm  -4.32186 10.5991 33.2453
RightForeArm  -5.95061 9.43021 8.89478
RightHand  -4.05412 10.5401 -29.3572
LeftUpLeg  -12.3538 16.5724 -1.04454
LeftLeg  30.8859 11.8188 7.87479
LeftFoot  -11.0937 0.0656221 -0.411728
LeftToes  1.06246e-005 4.65854e-005 -8.18503e-006
1153
root  66.9774 39.4985 30.5661 -179.157 -3.87045 177.283
RightUpLeg  -14.8654 -10.641 -4.50782
RightLeg  5.00815 -22.2265 6.05709
RightFoot  6.88676 0.705722 -4.09954
RightToes  0.000482159 0.542163 -0.142577
Spine  36.8592 -3.42452 9.53301
Spine1  7.76584 0.316539 -3.31052
HEad  -22.8315 5.86373 -11.0191
LeftShoulder1  12.5535 -18.6782 -49.4
LeftArm  -6.9829 6.10595 -24.132
LeftForeArm  27.8022 -13.4684 -5.54881
LeftHand  -0.25398 0.0180481 5.50724
RightShoulder  7.54235 13.4017 38.5348
RightArm  -3.33269 5.57768 33.1699
RightForeArm  -8.1408 10.9995 8.73594
RightHand  -3.78981 9.85798 -28.7108
LeftUpLeg  -9.19811 18.8504 -0.734436
LeftLeg  29.981 12.2886 7.89227
LeftFoot  -12.596 0.0665323 -0.811828
LeftToes  1.06246e-005 4.65854e-005 -8.18503e-006
1154
root  66.7501 39.4748 30.8249 -179.039 -4.11137 177.191
RightUpLeg  -15.1646 -10.9035 -4.95205
RightLeg  4.57632 -22.0766 6.24277
RightFoot  7.5826 0.724734 -4.03194
RightToes  0.000482159 0.542163 -0.142577
Spine  33.7869 -2.80996 8.54196
Spine1  8.3979 0.110459 -2.28499
HEad  -21.094 8.16603 -11.858
LeftShoulder1  12.3873 -18.0963 -50.0613
LeftArm  -6.12259 9.51091 -23.7137
LeftForeArm  26.3648 -14.0108 -5.47312
LeftHand  -0.25398 0.0180481 5.50724
RightShoulder  7.37005 12.9823 38.625
RightArm  -3.2253 1.97941 33.3122
RightForeArm  -8.57089 10.3587 8.92635
RightHand  -3.41238 8.5554 -28.2627
LeftUpLeg  -5.8307 22.4681 -0.32213
LeftLeg  27.5181 14.6044 8.42916
LeftFoot  -13.8835 0.0778481 -0.330395
LeftToes  1.06246e-005 4.65854e-005 -8.18503e-006
1155
root  66.5428 39.4512 31.1381 -179.304 -4.58081 177.353
RightUpLeg  -14.8852 -10.9536 -5.23734
RightLeg  3.68689 -22.6264 6.53486
RightFoot  8.5393 0.748069 -3.93085
RightToes  0.000482159 0.542163 -0.142577
Spine  31.3068 -2.41916 7.72924
Spine1  8.83012 -0.0650343 -1.66797
HEad  -19.4542 10.4677 -12.2492
LeftShoulder1  12.1963 -17.6344 -50.3664
LeftArm  -5.37375 12.302 -23.3207
LeftForeArm  24.7655 -14.4968 -5.41435
LeftHand  -0.25398 0.0180481 5.50724
RightShoulder  7.20316 12.5721 38.7254
RightArm  -1.25655 -1.22648 33.2213
RightForeArm  -7.70353 10.2932 9.19335
RightHand  -3.47596 9.13732 -27.66
LeftUpLeg  -1.87093 27.9973 1.10378
LeftLeg  24.2793 17.5594 8.82938
LeftFoot  -14.96 0.134774 1.42212
LeftToes  1.06246e-005 4.65854e-005 -8.18503e-006
1156
root  66.3328 39.417 31.5302 -179.813 -5.20375 177.788
RightUpLeg  -14.2332 -10.7968 -5.37579
RightLeg  2.28186 -23.7135 7.02239
RightFoot  9.63239 0.775919 -3.82895
RightToes  0.000482159 0.542163 -0.142577
Spine  29.2163 -2.15228 7.28492
Spine1  9.1429 -0.0909754 -1.50308
HEad  -17.8246 12.177 -12.5183
LeftShoulder1  12.024 -17.3146 -50.4194
LeftArm  -4.94078 14.5702 -23.2242
LeftForeArm  23.7077 -15.1814 -5.23388
LeftHand  -0.25398 0.0180481 5.50724
RightShoulder  7.02389 12.1977 38.6562
RightArm  6.25228 -4.92452 32.5982
RightForeArm  -10.8384 13.433 9.1708
RightHand  -5.3518 15.1122 -30.0384
LeftUpLeg  2.55103 34.4249 3.86182
LeftLeg  20.6698 19.2747 7.87281
LeftFoot  -15.7413 0.153143 1.57513
LeftToes  1.06246e-005 4.65854e-005 -8.18503e-006
1157
root  66.0927 39.3503 32.0372 179.624 -6.21802 178.015
RightUpLeg  -14.0146 -11.0374 -5.87805
RightLeg  1.68072 -24.2945 7.35162
RightFoot  10.5491 0.858237 -4.05632
RightToes  0.000482159 0.542163 -0.142577
Spine  27.4284 -1.91025 6.4709
Spine1  9.37867 -0.317874 -0.980759
HEad  -16.3614 13.2338 -13.0554
LeftShoulder1  11.8514 -16.8995 -50.7067
LeftArm  -4.75753 16.0882 -23.1755
LeftForeArm  22.8558 -16.1025 -4.95695
LeftHand  -0.25398 0.0180481 5.50724
RightShoulder  6.84667 11.9234 38.3189
RightArm  13.7554 -7.90688 31.9589
RightForeArm  -18.2317 16.54 8.64443
RightHand  -6.38913 17.1557 -32.5066
LeftUpLeg  6.28714 35.9264 6.44686
LeftLeg  17.9613 21.9217 5.27416
LeftFoot  -16.3983 0.0225665 -1.6985
LeftToes  1.06246e-005 4.65854e-005 -8.18503e-006
1158
root  65.8575 39.2715 32.6873 179.073 -8.28558 177.469
RightUpLeg  -14.3782 -12.2148 -7.35385
RightLeg  2.60872 -24.7997 7.04949
RightFoot  11.1874 0.921925 -4.2408
RightToes  0.000482159 0.542163 -0.142577
Spine  26.4068 -1.84052 4.57437
Spine1  9.24415 -1.08486 0.163617
HEad  -15.4792 13.8601 -13.4981
LeftShoulder1  11.5994 -16.3163 -51.0832
LeftArm  -4.57084 16.5885 -23.0405
LeftForeArm  21.4315 -16.9437 -4.77014
LeftHand  -0.25398 0.0180481 5.50724
RightShoulder  6.74102 11.75 38.1393
RightArm  14.9316 -8.59157 31.5427
RightForeArm  -18.5529 15.4491 9.38672
RightHand  -6.13385 16.7285 -31.8282
LeftUpLeg  7.33343 30.7146 5.9988
LeftLeg  16.87 26.224 2.93339
LeftFoot  -16.8484 -0.160089 -5.44034
LeftToes  1.06246e-005 4.65854e-005 -8.18503e-006
1159
root  65.6282 39.1772 33.4335 178.658 -11.4723 176.081
RightUpLeg  -15.236 -15.1179 -9.52947
RightLeg  5.11911 -25.1609 5.40038
RightFoot  11.1902 0.705106 -3.14506
RightToes  0.000482159 0.542163 -0.142577
Spine  25.9623 -2.03552 2.42654
Spine1  8.95497 -1.95668 0.762021
HEad  -15.1444 13.5896 -13.1671
LeftShoulder1  11.2989 -15.8701 -50.9087
LeftArm  -4.33056 16.1433 -23.1799
LeftForeArm  19.9438 -17.5017 -4.70847
LeftHand  -0.25398 0.0180481 5.50724
RightShoulder  6.65917 11.4965 38.3334
RightArm  15.4832 -9.40665 31.2299
RightForeArm  -19.7828 15.3993 9.54022
RightHand  -5.89301 16.279 -31.2521
LeftUpLeg  5.97511 28.2356 3.14838
LeftLeg  17.4493 25.063 3.2503
LeftFoot  -17.1996 -0.19404 -5.82065
LeftToes  1.06246e-005 4.65854e-005 -8.18503e-006
1160
root  65.3609 39.0437 34.1386 178.204 -14.2884 174.591
RightUpLeg  -16.664 -19.37 -10.7383
RightLeg  8.73229 -22.117 1.87736
RightFoot  10.2238 0.142379 -0.363094
RightToes  0.000482159 0.542163 -0.142577
Spine  25.4309 -2.0704 1.48725
Spine1  9.17173 -1.92515 -0.216669
HEad  -14.6368 12.0992 -12.2555
LeftShoulder1  11.1212 -15.7859 -50.3348
LeftArm  -4.19019 15.4237 -23.7233
LeftForeArm  19.4572 -18.2465 -4.54876
LeftHand  -0.25398 0.0180481 5.50724
RightShoulder  6.49435 11.1079 38.384
RightArm  13.6643 -11.1349 31.7597
RightForeArm  -20.5283 16.1227 8.98277
RightHand  -5.55583 15.5349 -30.5617
LeftUpLeg  4.31621 26.9459 -0.131073
LeftLeg  19.0135 23.2755 4.74229
LeftFoot  -17.7734 -0.0981893 -3.6577
LeftToes  1.06246e-005 4.65854e-005 -8.18503e-006
1161
root  65.0333 38.9138 34.7039 177.214 -15.3741 173.771
RightUpLeg  -18.0416 -19.9216 -10.8731
RightLeg  11.9664 -15.2956 -1.45541
RightFoot  8.66938 -0.400993 2.60833
RightToes  0.000482159 0.542163 -0.142577
Spine  24.8107 -1.56585 1.82945
Spine1  9.7203 -0.770877 -2.11192
HEad  -13.1458 10.0731 -11.7505
LeftShoulder1  11.1507 -15.8059 -50.4149
LeftArm  -4.27812 15.3468 -24.0076
LeftForeArm  19.7457 -19.7217 -4.18989
LeftHand  -0.25398 0.0180481 5.50724
RightShoulder  6.33981 10.8483 38.1236
RightArm  11.9817 -12.6793 32.5409
RightForeArm  -20.7692 15.9222 8.99112
RightHand  -5.35899 15.2158 -29.975
LeftUpLeg  4.27208 24.4638 -2.09759
LeftLeg  20.081 24.7914 5.40947
LeftFoot  -18.6467 -0.0477502 -2.47868
LeftToes  1.06246e-005 4.65854e-005 -8.18503e-006
1162
root  64.6843 38.8479 35.139 175.611 -15.3741 173.639
RightUpLeg  -18.4861 -14.3835 -11.2904
RightLeg  14.8525 -7.3099 -2.20977
RightFoot  7.07532 -0.638343 4.22449
RightToes  0.000482159 0.542163 -0.142577
Spine  24.5823 -0.81424 2.29216
Spine1  10.0649 0.51978 -3.47634
HEad  -10.8496 8.67798 -11.8027
LeftShoulder1  11.1732 -15.573 -51.1251
LeftArm  -4.86098 16.0728 -23.862
LeftForeArm  19.9534 -21.432 -3.91694
LeftHand  -0.25398 0.0180481 5.50724
RightShoulder  6.28583 10.783 37.9544
RightArm  12.5925 -12.5628 32.6813
RightForeArm  -20.1299 13.9011 10.2161
RightHand  -5.30241 15.2814 -29.5877
LeftUpLeg  5.65122 20.834 -2.82896
LeftLeg  20.2819 28.1487 5.07001
LeftFoot  -19.4714 -0.097077 -3.00545
LeftToes  1.06246e-005 4.65854e-005 -8.18503e-006
1163
root  64.3535 38.8302 35.4734 174.089 -15.9425 173.835
RightUpLeg  -18.6616 -6.94353 -11.8775
RightLeg  18.4358 -0.901701 -0.568734
RightFoot  5.82313 -0.699914 4.89788
RightToes  0.000482159 0.542163 -0.142577
Spine  24.3923 -0.396118 2.10281
Spine1  10.0968 0.966026 -3.7235
HEad  -8.51493 8.23016 -11.6996
LeftShoulder1  11.0701 -15.2486 -51.5201
LeftArm  -5.61186 17.2272 -23.8375
LeftForeArm  19.7983 -22.3391 -3.8884
LeftHand  -0.25398 0.0180481 5.50724
RightShoulder  6.27828 10.7295 38.0627
RightArm  14.558 -10.8855 32.3643
RightForeArm  -18.2123 11.0371 11.9342
RightHand  -5.1785 15.0176 -29.2886
LeftUpLeg  6.93898 17.3468 -3.44169
LeftLeg  20.1559 30.5403 4.69013
LeftFoot  -20.0553 -0.12221 -3.18763
LeftToes  1.06246e-005 4.65854e-005 -8.18503e-006
1164
root  64.0394 38.8387 35.7304 173.174 -17.8546 174.233
RightUpLeg  -19.1556 -3.44601 -11.2638
RightLeg  22.4525 2.73798 1.011
RightFoot  5.16895 -0.875134 6.27124
RightToes  0.000482159 0.542163 -0.142577
Spine  23.5806 -0.487771 1.41567
Spine1  10.2009 0.48167 -3.08213
HEad  -6.56413 7.99737 -10.9375
LeftShoulder1  10.9053 -15.1202 -51.1114
LeftArm  -5.78523 18.3231 -24.4161
LeftForeArm  20.0524 -22.1245 -3.87723
LeftHand  -0.25398 0.0180481 5.50724
RightShoulder  6.19138 10.5346 38.0557
RightArm  16.0019 -9.31609 32.5293
RightForeArm  -16.2215 9.54786 12.754
RightHand  -4.8727 14.1089 -28.8685
LeftUpLeg  7.53056 14.7741 -4.10032
LeftLeg  19.9574 31.0498 4.58423
LeftFoot  -20.4958 -0.0706335 -2.4185
LeftToes  1.06246e-005 4.65854e-005 -8.18503e-006
